#N canvas 2 63 1009 675 24;
#X obj -114 -1162 vsl 22 222 0 1 0 0 knob1 empty empty 0 -22 0 22 -4034
-1 -1 13260 1;
#X floatatom -107 -841 5 0 0 0 - - -, f 5;
#X floatatom -232 -846 5 0 0 0 - - -, f 5;
#X obj -325 -897 adc~;
#N canvas 2 99 1009 675 quad_delay~ 0;
#X obj 390 -266 tgl 15 0 empty empty empty 17 7 0 10 -262144 -1 -1
1 1;
#X floatatom 607 -282 5 0 0 0 - - -, f 5;
#X obj 226 -89 line~;
#X obj 211 131 *~;
#X msg 268 -150 \$1 2;
#X obj 305 -228 ==;
#X obj 389 -152 line~;
#X msg 396 -227 \$1 2;
#X obj 296 -15 *~;
#X obj 387 -377 loadbang;
#X msg 388 -320 1;
#X obj 387 -405 bng 15 250 50 0 empty empty empty 17 7 0 10 -262144
-1 -1;
#X obj 168 265 outlet~;
#X obj 371 266 outlet~;
#X obj 616 -344 inlet;
#X obj 56 -290 inlet~;
#X obj 627 -207 inlet;
#X obj 370 111 delay2sec 2;
#X connect 0 0 5 0;
#X connect 0 0 7 0;
#X connect 1 0 17 1;
#X connect 2 0 3 1;
#X connect 3 0 12 0;
#X connect 3 0 13 0;
#X connect 4 0 2 0;
#X connect 5 0 4 0;
#X connect 6 0 8 1;
#X connect 7 0 6 0;
#X connect 8 0 17 0;
#X connect 9 0 10 0;
#X connect 10 0 0 0;
#X connect 14 0 1 0;
#X connect 15 0 3 0;
#X connect 15 0 8 0;
#X connect 16 0 17 2;
#X connect 17 0 12 0;
#X connect 17 0 13 0;
#X restore -223 -785 pd quad_delay~;
#N canvas 0 50 1912 978 audioIO 0;
#X obj 774 530 dac~;
#X obj 872 225 catch~ outR;
#X obj 667 264 catch~ outL;
#X obj 453 360 adc~;
#X obj 546 439 s~ inR;
#X obj 371 438 s~ inL;
#X obj 748 467 *~;
#X obj 837 469 *~;
#X obj 1120 120 r vol;
#X obj 1071 316 *;
#X obj 1101 256 t f f;
#X obj 1071 344 sig~;
#X obj 1071 370 lop~ 2;
#X obj 743 373 clip~ -1 1;
#X obj 832 373 clip~ -1 1;
#X text 424 131 Receives and sends audio to patch. Outgoing audio is
run through a compressor to provide some headroom if things get too
loud. Also sends values to the Organelle's OLED VU meter.;
#X obj 1003 554 vsl 15 128 0 1 0 0 empty empty empty 0 -9 0 10 -262144
-1 -1 0 1;
#X obj 1003 520 r vol;
#X obj 746 328 *~ 0.25;
#X obj 843 327 *~ 0.25;
#X obj 1253 65 vsl 15 128 0 1 0 0 empty empty empty 0 -9 0 10 -262144
-1 -1 0 1;
#X obj 1251 238 s vol;
#X connect 1 0 19 0;
#X connect 2 0 18 0;
#X connect 3 0 5 0;
#X connect 3 1 4 0;
#X connect 6 0 0 0;
#X connect 7 0 0 1;
#X connect 8 0 10 0;
#X connect 9 0 11 0;
#X connect 10 0 9 0;
#X connect 10 1 9 1;
#X connect 11 0 12 0;
#X connect 12 0 7 1;
#X connect 12 0 6 1;
#X connect 13 0 6 0;
#X connect 14 0 7 0;
#X connect 17 0 16 0;
#X connect 18 0 13 0;
#X connect 19 0 14 0;
#X connect 20 0 21 0;
#X restore -315 39 pd audioIO;
#X obj -314 139 delay 300;
#X msg -309 177 \; pd dsp 1;
#N canvas 0 50 450 300 (subpatch) 0;
#X array output 500 float 2;
#X coords 0 -0.8 500 0.8 500 333 1 0 0;
#X restore 300 -1199 graph;
#X obj 233 -633 tabwrite~ output;
#X msg 281 -750 1;
#X obj -228 -1849 loadbang;
#X obj -225 -1811 s mbang;
#X obj 283 -694 tgl 15 0 empty empty empty 17 7 0 10 -262144 -1 -1
1 1;
#X obj -302 -1842 bng 15 250 50 0 empty empty empty 17 7 0 10 -262144
-1 -1;
#X obj 280 -802 r mbang;
#X obj -314 83 r mbang;
#X obj -20 -753 lop~;
#X obj 68 -1145 vsl 22 222 0 0.9 0 0 depth empty empty 0 -22 0 22 -257985
-1 -1 4578 1;
#X floatatom 154 -834 5 0 0 0 - - -, f 5;
#X obj 19 -629 dac~;
#X text 70 -1195 volume;
#X text -116 -1189 delay1;
#X obj -68 -1160 vsl 22 222 0.96 0.99 0 0 knob1 empty empty 0 -9 0
22 -4034 -1 -33289 0 1;
#X obj -200 -1154 vsl 22 222 0 5000 0 0 depth empty empty 0 -9 0 22
-257985 -1 -1 3315 1;
#X obj -131 -1273 r mbang;
#N canvas 300 245 450 300 volume 0;
#X obj 44 15 inlet~;
#X obj 106 199 outlet~;
#X obj 108 119 *~ 0.5;
#X obj 245 13 inlet;
#X connect 0 0 2 0;
#X connect 2 0 1 0;
#X connect 3 0 2 1;
#X restore 36 -716 pd volume;
#X obj -162 -1155 vsl 22 222 5 50 0 0 depth empty empty 0 -22 0 22
-257985 -1 -1 0 1;
#X obj 282 -675 metro 360;
#X obj -21 -1226 1000;
#X obj -313 -199 udpreceive 8100;
#X obj -312 -140 unpackOSC;
#X floatatom -115 -66 4 0 0 0 - - -, f 4;
#X floatatom -50 -74 4 0 0 0 - - -, f 4;
#X floatatom 41 -67 4 0 0 0 - - -, f 4;
#X floatatom 152 -63 4 0 0 0 - - -, f 4;
#X floatatom 274 -65 4 0 0 0 - - -, f 4;
#X floatatom 377 -69 4 0 0 0 - - -, f 4;
#X obj -110 -139 unpack s f f f f f f f f f f f f f f f f f f f f f
f f f f f f f;
#X obj -343 -163 bng 15 250 50 0 empty empty empty 17 7 0 10 -262144
-1 -1;
#X floatatom -297 -51 5 0 0 0 - - -, f 5;
#N canvas 0 50 450 300 (subpatch) 0;
#X array f1 50 float 0;
#X coords 0 100 49 0 200 222 1 0 0;
#X restore 39 -1742 graph;
#X obj -17 -1158 vsl 22 222 0 1000 0 0 depth empty empty 0 -22 0 22
-159808 -1 -1 22100 1;
#X floatatom 25 -840 5 0 0 0 - - -, f 5;
#X text -20 -1195 cutoff;
#X obj -311 -12 s tableCount;
#N canvas 0 50 450 300 (subpatch) 0;
#X array f2 50 float 0;
#X coords 0 100 50 0 200 222 1 0 0;
#X restore 245 -1741 graph;
#N canvas 0 50 450 300 (subpatch) 0;
#X array f3 50 float 0;
#X coords 0 110 50 0 200 222 1 0 0;
#X restore 459 -1744 graph;
#N canvas 0 50 50 300 (subpatch) 0;
#X array f4 50 float 0;
#X coords 0 0 49 1000 200 222 1 0 0;
#X restore 34 -1496 graph;
#N canvas 0 50 450 300 (subpatch) 0;
#X array f5 50 float 0;
#X coords 0 100 49 0 200 222 1 0 0;
#X restore 247 -1495 graph;
#N canvas 0 50 450 300 (subpatch) 0;
#X array f6 50 float 0;
#X coords 0 100 49 0 200 222 1 0 0;
#X restore 457 -1494 graph;
#X obj -121 -25 s f1;
#X obj -37 -30 s f2;
#X obj 36 -29 s f3;
#X obj 146 -20 s f4;
#X obj 264 -20 s f5;
#X obj 363 -20 s f6;
#N canvas 2 81 1009 675 recieves 0;
#X obj -53 220 r f2;
#X obj 96 191 r f3;
#X obj 223 86 r f4;
#X obj 436 175 r f5;
#X obj 585 172 r f6;
#X obj 724 164 r f7;
#X obj -335 -98 outlet;
#X obj -182 -97 outlet;
#X obj 7 -91 outlet;
#X obj 189 -132 outlet;
#X obj 358 -134 outlet;
#X obj 538 -178 outlet;
#X obj 737 -172 outlet;
#X obj -334 -153 tabwrite f1;
#X obj -180 -159 tabwrite f2;
#X obj 187 -197 tabwrite f4;
#X obj 533 -415 tabwrite f6;
#X obj 743 -214 tabwrite f7;
#X obj 9 -146 tabwrite f3;
#X obj 360 -179 tabwrite f5;
#X obj 316 -511 r tableCount;
#X obj -263 -649 osc~;
#X obj -254 -755 bng 15 250 50 0 empty empty empty 17 7 0 10 -262144
-1 -1;
#X msg -295 -828 300;
#X msg -207 -824 400;
#X msg -161 -767 500;
#X msg -159 -706 1000;
#X msg -150 -631 100;
#X obj -295 -687 tgl 15 0 empty empty empty 17 7 0 10 -262144 -1 -1
0 1;
#X obj -269 -736 tgl 15 0 empty empty empty 17 7 0 10 -262144 -1 -1
0 1;
#X obj -292 -562 metro 11;
#X obj 151 -676 bng 15 250 50 0 empty empty empty 17 7 0 10 -262144
-1 -1;
#X obj 150 -569 print;
#X obj 150 -609 tabread f2;
#X obj 154 -652 counter 1 1 50;
#X floatatom -197 225 5 0 0 0 - - -, f 5;
#X floatatom -53 259 5 0 0 0 - - -, f 5;
#X floatatom 107 247 5 0 0 0 - - -, f 5;
#X floatatom 289 86 5 0 0 0 - - -, f 5;
#X floatatom 437 241 5 0 0 0 - - -, f 5;
#X floatatom 585 242 5 0 0 0 - - -, f 5;
#X floatatom 738 249 5 0 0 0 - - -, f 5;
#X obj -188 294 min;
#X floatatom -201 354 5 0 0 0 - - -, f 5;
#X obj -37 306 min;
#X floatatom -34 365 5 0 0 0 - - -, f 5;
#X obj -195 414 max;
#X floatatom -195 478 5 0 0 0 - - -, f 5;
#X obj -56 421 max;
#X floatatom -56 476 5 0 0 0 - - -, f 5;
#X obj 92 313 min;
#X floatatom 83 374 5 0 0 0 - - -, f 5;
#X obj 92 433 max;
#X floatatom 108 493 5 0 0 0 - - -, f 5;
#X obj 228 122 min;
#X floatatom 293 123 5 0 0 0 - - -, f 5;
#X obj 229 157 max;
#X floatatom 295 157 5 0 0 0 - - -, f 5;
#X obj 433 302 min;
#X floatatom 432 363 5 0 0 0 - - -, f 5;
#X obj 433 422 max;
#X floatatom 433 477 5 0 0 0 - - -, f 5;
#X obj 587 320 min;
#X floatatom 586 381 5 0 0 0 - - -, f 5;
#X obj 587 440 max;
#X floatatom 587 495 5 0 0 0 - - -, f 5;
#X obj 749 336 min;
#X floatatom 748 397 5 0 0 0 - - -, f 5;
#X obj 749 456 max;
#X floatatom 749 511 5 0 0 0 - - -, f 5;
#X floatatom -282 222 5 0 0 0 - - -, f 5;
#X msg -284 165 1000;
#X floatatom -285 412 5 0 0 0 - - -, f 5;
#X obj -200 536 s f1Mx;
#X obj -62 538 s f2Mx;
#X obj 104 546 s f3Mx;
#X obj 292 216 s f4Mx;
#X obj 435 565 s f5Mx;
#X obj 581 569 s f6Mx;
#X obj 739 571 s f7Mx;
#X obj -212 595 s f1Mn;
#X obj 86 606 s f3Mn;
#X obj 292 186 s f4Mn;
#X obj 587 626 s f6Mn;
#X obj 753 633 s f7Mn;
#X obj 434 621 s f5Mn;
#X obj -64 598 s f2Mn;
#X msg -287 355 -1000;
#X obj -195 170 r f1;
#X obj -349 -372 r f1;
#X obj -341 -425 r f1Mx;
#X obj -351 -321 r f1Mn;
#N canvas 0 50 1912 978 Norm 0;
#X floatatom -1610 58 5 0 0 0 - - -, f 5;
#X obj -1612 6 expr (($f1 - $f2) / ($f3 - $f2)) * 100;
#X obj -1616 150 outlet;
#X obj -1595 -161 inlet;
#X obj -1141 -150 inlet;
#X obj -971 -173 inlet;
#X connect 0 0 2 0;
#X connect 1 0 0 0;
#X connect 3 0 1 0;
#X connect 4 0 1 1;
#X connect 5 0 1 2;
#X restore -337 -214 pd Norm;
#N canvas 0 50 1912 978 Norm 0;
#X floatatom -1610 58 5 0 0 0 - - -, f 5;
#X obj -1612 6 expr (($f1 - $f2) / ($f3 - $f2)) * 100;
#X obj -1616 150 outlet;
#X obj -1595 -161 inlet;
#X obj -1141 -150 inlet;
#X obj -971 -173 inlet;
#X connect 0 0 2 0;
#X connect 1 0 0 0;
#X connect 3 0 1 0;
#X connect 4 0 1 1;
#X connect 5 0 1 2;
#X restore -175 -224 pd Norm;
#N canvas 0 50 1912 978 Norm 0;
#X floatatom -1610 58 5 0 0 0 - - -, f 5;
#X obj -1612 6 expr (($f1 - $f2) / ($f3 - $f2)) * 100;
#X obj -1616 150 outlet;
#X obj -1595 -161 inlet;
#X obj -1141 -150 inlet;
#X obj -971 -173 inlet;
#X connect 0 0 2 0;
#X connect 1 0 0 0;
#X connect 3 0 1 0;
#X connect 4 0 1 1;
#X connect 5 0 1 2;
#X restore 23 -246 pd Norm;
#N canvas 0 50 1912 978 Norm 0;
#X floatatom -1610 58 5 0 0 0 - - -, f 5;
#X obj -1612 6 expr (($f1 - $f2) / ($f3 - $f2)) * 100;
#X obj -1616 150 outlet;
#X obj -1595 -161 inlet;
#X obj -1141 -150 inlet;
#X obj -971 -173 inlet;
#X connect 0 0 2 0;
#X connect 1 0 0 0;
#X connect 3 0 1 0;
#X connect 4 0 1 1;
#X connect 5 0 1 2;
#X restore 531 -248 pd Norm;
#N canvas 0 50 1912 978 Norm 0;
#X floatatom -1610 58 5 0 0 0 - - -, f 5;
#X obj -1612 6 expr (($f1 - $f2) / ($f3 - $f2)) * 100;
#X obj -1616 150 outlet;
#X obj -1595 -161 inlet;
#X obj -1141 -150 inlet;
#X obj -971 -173 inlet;
#X connect 0 0 2 0;
#X connect 1 0 0 0;
#X connect 3 0 1 0;
#X connect 4 0 1 1;
#X connect 5 0 1 2;
#X restore 362 -218 pd Norm;
#N canvas 0 50 1912 978 Norm 0;
#X floatatom -1610 58 5 0 0 0 - - -, f 5;
#X obj -1612 6 expr (($f1 - $f2) / ($f3 - $f2)) * 100;
#X obj -1616 150 outlet;
#X obj -1595 -161 inlet;
#X obj -1141 -150 inlet;
#X obj -971 -173 inlet;
#X connect 0 0 2 0;
#X connect 1 0 0 0;
#X connect 3 0 1 0;
#X connect 4 0 1 1;
#X connect 5 0 1 2;
#X restore 729 -259 pd Norm;
#X obj -190 -374 r f2;
#X obj 50 -406 r f3;
#X obj 179 -409 r f4;
#X obj 364 -306 r f5;
#X obj 558 -331 r f6;
#X obj 731 -358 r f7;
#X obj -188 -429 r f2Mx;
#X obj -192 -321 r f2Mn;
#X obj 50 -459 r f3Mx;
#X obj 49 -355 r f3Mn;
#X obj 182 -459 r f4Mx;
#X obj 179 -348 r f4Mn;
#X obj 364 -356 r f5Mx;
#X obj 364 -254 r f5Mn;
#X obj 565 -383 r f6Mx;
#X obj 558 -283 r f6Mn;
#X obj 731 -409 r f7Mx;
#X obj 731 -302 r f7Mn;
#X obj -325 -9 bng 15 250 50 0 empty empty empty 17 7 0 10 -262144
-1 -1;
#N canvas 0 57 1024 675 NormSCntr 0;
#X floatatom 163 333 5 0 0 0 - - -, f 5;
#X obj 157 425 outlet;
#X obj 178 114 inlet;
#X obj 380 129 inlet;
#X obj 463 128 inlet;
#X obj 151 239 expr (($f1 - $f2)/($f3-$f2))*100;
#X connect 0 0 1 0;
#X connect 2 0 5 0;
#X connect 3 0 5 1;
#X connect 4 0 5 2;
#X connect 5 0 0 0;
#X restore 182 -247 pd NormSCntr;
#X obj -406 -52 inlet;
#X obj -358 23 counter 2 1 20;
#X obj -378 321 * -1;
#X connect 0 0 36 0;
#X connect 1 0 37 0;
#X connect 2 0 38 0;
#X connect 3 0 39 0;
#X connect 4 0 40 0;
#X connect 5 0 41 0;
#X connect 20 0 13 1;
#X connect 20 0 14 1;
#X connect 20 0 18 1;
#X connect 20 0 15 1;
#X connect 20 0 19 1;
#X connect 20 0 16 1;
#X connect 20 0 17 1;
#X connect 22 0 29 0;
#X connect 23 0 21 0;
#X connect 24 0 21 0;
#X connect 25 0 21 0;
#X connect 26 0 21 0;
#X connect 27 0 21 0;
#X connect 28 0 30 0;
#X connect 29 0 21 0;
#X connect 31 0 34 0;
#X connect 33 0 32 0;
#X connect 34 0 33 0;
#X connect 35 0 42 0;
#X connect 35 0 46 0;
#X connect 36 0 44 0;
#X connect 36 0 48 0;
#X connect 37 0 50 0;
#X connect 37 0 52 0;
#X connect 38 0 54 0;
#X connect 38 0 56 0;
#X connect 39 0 58 0;
#X connect 39 0 60 0;
#X connect 40 0 62 0;
#X connect 40 0 64 0;
#X connect 41 0 66 0;
#X connect 41 0 68 0;
#X connect 42 0 43 0;
#X connect 43 0 42 1;
#X connect 43 0 80 0;
#X connect 44 0 45 0;
#X connect 45 0 44 1;
#X connect 45 0 86 0;
#X connect 46 0 47 0;
#X connect 47 0 46 1;
#X connect 47 0 73 0;
#X connect 48 0 49 0;
#X connect 49 0 48 1;
#X connect 49 0 74 0;
#X connect 50 0 51 0;
#X connect 51 0 50 1;
#X connect 51 0 81 0;
#X connect 52 0 53 0;
#X connect 53 0 52 1;
#X connect 53 0 75 0;
#X connect 54 0 55 0;
#X connect 55 0 54 1;
#X connect 55 0 82 0;
#X connect 56 0 57 0;
#X connect 57 0 56 1;
#X connect 57 0 76 0;
#X connect 58 0 59 0;
#X connect 59 0 58 1;
#X connect 59 0 85 0;
#X connect 60 0 61 0;
#X connect 61 0 60 1;
#X connect 61 0 77 0;
#X connect 62 0 63 0;
#X connect 63 0 62 1;
#X connect 63 0 83 0;
#X connect 64 0 65 0;
#X connect 65 0 64 1;
#X connect 65 0 78 0;
#X connect 66 0 67 0;
#X connect 67 0 66 1;
#X connect 68 0 69 0;
#X connect 69 0 68 1;
#X connect 70 0 43 0;
#X connect 70 0 45 0;
#X connect 70 0 51 0;
#X connect 70 0 55 0;
#X connect 70 0 59 0;
#X connect 70 0 63 0;
#X connect 70 0 67 0;
#X connect 71 0 70 0;
#X connect 72 0 47 0;
#X connect 72 0 49 0;
#X connect 72 0 53 0;
#X connect 72 0 57 0;
#X connect 72 0 61 0;
#X connect 72 0 65 0;
#X connect 72 0 69 0;
#X connect 87 0 72 0;
#X connect 88 0 35 0;
#X connect 89 0 92 0;
#X connect 90 0 92 2;
#X connect 91 0 92 1;
#X connect 92 0 13 0;
#X connect 92 0 6 0;
#X connect 93 0 7 0;
#X connect 93 0 14 0;
#X connect 94 0 8 0;
#X connect 94 0 18 0;
#X connect 95 0 16 0;
#X connect 95 0 11 0;
#X connect 96 0 19 0;
#X connect 96 0 10 0;
#X connect 97 0 12 0;
#X connect 97 0 17 0;
#X connect 98 0 93 0;
#X connect 99 0 94 0;
#X connect 100 0 117 0;
#X connect 101 0 96 0;
#X connect 102 0 95 0;
#X connect 103 0 97 0;
#X connect 104 0 93 2;
#X connect 105 0 93 1;
#X connect 106 0 94 2;
#X connect 107 0 94 1;
#X connect 108 0 117 2;
#X connect 109 0 117 1;
#X connect 110 0 96 2;
#X connect 111 0 96 1;
#X connect 112 0 95 2;
#X connect 113 0 95 1;
#X connect 114 0 97 2;
#X connect 115 0 97 1;
#X connect 116 0 119 0;
#X connect 117 0 9 0;
#X connect 117 0 15 0;
#X connect 118 0 116 0;
#X connect 118 0 119 0;
#X connect 119 0 71 0;
#X connect 119 0 120 0;
#X connect 120 0 87 0;
#X restore -287 -1761 pd recieves;
#X obj -311 -87 counter 3 1 50;
#X obj -207 -1695 hsl 222 22 0 100 0 0 empty empty zcr -2 -22 0 22
-131073 -262144 -1 0 1;
#X obj -211 -1639 hsl 222 22 0 100 0 0 empty empty e_energy -2 -22
0 22 -131073 -262144 -33289 0 1;
#X obj -215 -1500 hsl 222 22 0 244 0 0 empty empty s_centroid -2 -22
0 22 -86277 -262144 -33289 0 1;
#X obj -213 -1568 hsl 222 22 0 350 0 0 empty empty e_entropy -2 -22
0 22 -131073 -262144 -33289 0 1;
#X obj -218 -1375 hsl 222 22 0 100 0 0 empty empty s_entropy -2 -22
0 22 -1 -262144 -33289 0 1;
#X obj -217 -1436 hsl 222 22 0 100 0 0 empty empty s_spread -2 -22
0 22 -131073 -262144 -1 0 1;
#X floatatom -289 -1698 5 0 0 0 - - -, f 5;
#X floatatom -288 -1569 5 0 0 0 - - -, f 5;
#X floatatom -295 -1640 5 0 0 0 - - -, f 5;
#X floatatom -295 -1500 5 0 0 0 - - -, f 5;
#X floatatom -295 -1436 5 0 0 0 - - -, f 5;
#X floatatom -297 -1375 5 0 0 0 - - -, f 5;
#X floatatom 479 -69 4 0 0 0 - - -, f 4;
#X msg -314 -259 set 1;
#N canvas 2 129 1009 675 oscPlayer 0;
#X obj 444 306 osc~;
#X msg 646 13 300;
#X msg 734 17 400;
#X msg 780 74 500;
#X msg 782 135 1000;
#X msg 791 210 100;
#X obj 416 118 tgl 15 0 empty empty empty 17 7 0 10 -262144 -1 -1 0
1;
#X obj 646 540 s counterReset;
#X obj 647 503 bng 15 250 50 0 empty empty empty 17 7 0 10 -262144
-1 -1;
#X floatatom 654 436 5 0 0 0 - - -, f 5;
#X obj 635 355 counter 2 200 333;
#X obj 492 533 outlet~;
#X obj 366 35 inlet;
#X obj 649 279 metro 333;
#X obj 517 37 inlet;
#X floatatom 486 185 5 0 0 0 - - -, f 5;
#X obj 388 363 *~ 0.2;
#X obj 484 128 expr ($f1 * 100)-440;
#X connect 0 0 16 0;
#X connect 1 0 0 0;
#X connect 2 0 0 0;
#X connect 3 0 0 0;
#X connect 4 0 0 0;
#X connect 5 0 0 0;
#X connect 6 0 0 0;
#X connect 10 0 0 0;
#X connect 10 0 9 0;
#X connect 10 3 7 0;
#X connect 10 3 8 0;
#X connect 12 0 6 0;
#X connect 12 0 1 0;
#X connect 13 0 10 0;
#X connect 13 0 0 0;
#X connect 14 0 17 0;
#X connect 16 0 11 0;
#X connect 17 0 0 0;
#X connect 17 0 15 0;
#X restore -263 -660 pd oscPlayer;
#X obj -326 -395 noise~;
#X obj -333 -350 /~ 222;
#X obj -235 -393 r f3;
#X obj -26 -179 bng 15 250 50 0 empty empty empty 17 7 0 10 -262144
-1 -1;
#X obj -189 -1225 750;
#X text -202 -1188 delay, f 6;
#X obj -224 -1317 hsl 222 22 0 100 0 0 empty empty s_flux -2 -22 0
22 -131073 -262144 -33289 0 1;
#X floatatom -297 -1317 5 0 0 0 - - -, f 5;
#X text 117 -1819 osc in # # # # # # # # # # # # # # # # # #;
#X obj -213 -737 r oscbang;
#X obj -22 -1822 s oscbang;
#X obj -56 -1845 bng 15 250 50 0 empty empty empty 17 7 0 10 -262144
-1 -1;
#X obj 6 -1847 tgl 15 0 empty empty empty 17 7 0 10 -262144 -1 -1 0
1;
#X obj -77 -661 r freq;
#X obj -78 -1470 s freq;
#X obj -331 -819 *~ 0.8;
#X floatatom 416 -754 5 0 0 0 - - -, f 5;
#X obj -173 -1274 bng 15 250 50 0 empty empty empty 17 7 0 10 -262144
-1 -1;
#X obj -112 -1225 0.6;
#X floatatom -284 -1223 5 0 0 0 - - -, f 5;
#X obj -670 -1641 expr (($f1 - 22)/(30)) *1000;
#X obj 73 -1225 0.2;
#X connect 0 0 1 0;
#X connect 1 0 4 2;
#X connect 2 0 4 1;
#X connect 3 0 89 0;
#X connect 3 1 89 0;
#X connect 4 0 17 0;
#X connect 4 1 17 0;
#X connect 6 0 7 0;
#X connect 10 0 13 0;
#X connect 11 0 12 0;
#X connect 13 0 28 0;
#X connect 14 0 12 0;
#X connect 14 0 57 0;
#X connect 15 0 10 0;
#X connect 16 0 6 0;
#X connect 17 0 26 0;
#X connect 18 0 19 0;
#X connect 19 0 26 1;
#X connect 23 0 1 0;
#X connect 24 0 2 0;
#X connect 25 0 29 0;
#X connect 25 0 78 0;
#X connect 25 0 92 0;
#X connect 25 0 95 0;
#X connect 26 0 20 0;
#X connect 26 0 20 1;
#X connect 26 0 9 0;
#X connect 27 0 2 0;
#X connect 28 0 9 0;
#X connect 29 0 42 0;
#X connect 30 0 31 0;
#X connect 31 0 38 0;
#X connect 31 0 39 0;
#X connect 32 0 51 0;
#X connect 33 0 52 0;
#X connect 34 0 53 0;
#X connect 35 0 54 0;
#X connect 36 0 55 0;
#X connect 37 0 56 0;
#X connect 38 1 32 0;
#X connect 38 2 33 0;
#X connect 38 3 34 0;
#X connect 38 4 35 0;
#X connect 38 5 36 0;
#X connect 38 6 37 0;
#X connect 38 7 71 0;
#X connect 39 0 58 0;
#X connect 42 0 43 0;
#X connect 43 0 17 1;
#X connect 57 0 59 0;
#X connect 57 0 65 0;
#X connect 57 1 60 0;
#X connect 57 1 67 0;
#X connect 57 2 62 0;
#X connect 57 2 66 0;
#X connect 57 3 61 0;
#X connect 57 3 68 0;
#X connect 57 4 64 0;
#X connect 57 4 69 0;
#X connect 57 5 63 0;
#X connect 57 5 70 0;
#X connect 57 6 80 0;
#X connect 57 6 81 0;
#X connect 58 0 40 0;
#X connect 58 0 45 0;
#X connect 67 0 94 0;
#X connect 68 0 88 0;
#X connect 72 0 58 0;
#X connect 74 0 75 0;
#X connect 76 0 75 1;
#X connect 77 0 38 0;
#X connect 78 0 24 0;
#X connect 83 0 73 0;
#X connect 85 0 84 0;
#X connect 86 0 84 0;
#X connect 87 0 73 1;
#X connect 89 0 4 0;
#X connect 90 0 28 1;
#X connect 91 0 92 0;
#X connect 92 0 0 0;
#X connect 93 0 24 0;
#X connect 94 0 93 0;
#X connect 95 0 18 0;
#X coords 0 0 3 3 0 0 0;
